<svg width="15" height="9" viewBox="0 0 15 9" fill="none" xmlns="http://www.w3.org/2000/svg">
<path d="M8.49188 8.28089L14.4689 1.83322C14.635 1.68409 14.7266 1.48502 14.7266 1.27276C14.7266 1.0605 14.635 0.861424 14.4689 0.712298L13.9405 0.237472C13.5962 -0.0715007 13.0365 -0.0715007 12.6927 0.237472L7.86591 5.65173L3.03238 0.231464C2.86625 0.0823377 2.64479 0 2.40864 0C2.17223 0 1.95076 0.0823377 1.7845 0.231464L1.25622 0.70629C1.09009 0.855535 0.998564 1.05449 0.998564 1.26675C0.998564 1.47902 1.09009 1.67809 1.25622 1.82721L7.2398 8.28089C7.40646 8.43037 7.62897 8.51247 7.86551 8.512C8.10297 8.51247 8.32535 8.43037 8.49188 8.28089Z" fill="#4C4C4C"/>
</svg>
